<?xml version="1.0" encoding="utf-8"?>
<!-- Generator: Adobe Illustrator 17.0.0, SVG Export Plug-In . SVG Version: 6.00 Build 0)  -->
<!DOCTYPE svg PUBLIC "-//W3C//DTD SVG 1.1//EN" "http://www.w3.org/Graphics/SVG/1.1/DTD/svg11.dtd">
<svg version="1.1" id="Calque_1" xmlns="http://www.w3.org/2000/svg" xmlns:xlink="http://www.w3.org/1999/xlink" x="0px" y="0px"
	 width="60px" height="60px" viewBox="0 0 60 60" enable-background="new 0 0 60 60" xml:space="preserve">
<g>
	<g>
		<path fill="#878787" d="M19.634,31.95h-4.98v4.8h4.656c1.66,0,3.103-0.47,3.103-2.454C22.413,32.779,21.511,31.95,19.634,31.95z"
			/>
		<path fill="#878787" d="M21.547,25.02c0-1.299-1.083-1.768-2.707-1.768h-4.186v3.897h4.186C20.5,27.149,21.547,26.68,21.547,25.02
			z"/>
		<path fill="#878787" d="M30,0C13.431,0,0,13.431,0,30s13.431,30,30,30c16.568,0,30-13.431,30-30S46.569,0,30,0z M42.769,43.497
			c-6.556,0-10.879-3.637-12.428-8.894c0.007,0.147,0.012,0.296,0.012,0.449c0,5.161-4.475,7.831-9.023,7.831H6.715V17.116h14.11
			c6.785,0,8.228,3.826,8.228,6.46c0,2.599-1.263,4.006-3.175,5.053c1.63,0.56,3.187,1.643,3.963,3.563
			c-0.09-0.711-0.137-1.442-0.137-2.191c0-8.121,5.125-13.498,13.065-13.498c7.073,0.036,10.971,3.753,11.656,10.213h-7.723
			c-0.144-0.938-0.867-3.789-4.15-3.789c-3.717,0-4.908,3.609-4.908,7.074c0,3.465,1.191,7.073,4.908,7.073
			c2.671,0,3.717-1.876,4.187-4.294h7.795C54.533,37.976,50.311,43.497,42.769,43.497z"/>
	</g>
</g>
</svg>
